<?xml version="1.0" encoding="UTF-8"?>
<svg version="1.1" xmlns="http://www.w3.org/2000/svg" width="512" height="512">
<path d="M0 0 C0.97305084 0.00215515 1.94610168 0.0043103 2.94863892 0.00653076 C17.29535732 0.05752743 31.34115345 0.40115583 45.4375 3.3125 C46.42057129 3.51117676 47.40364258 3.70985352 48.41650391 3.91455078 C91.33427323 12.84043052 132.83306717 32.04346039 164.640625 62.6328125 C167.13826779 65.02580545 169.69384837 67.30413265 172.3125 69.5625 C176.41135359 73.19270064 179.93590965 77.11206283 183.4375 81.3125 C184.17484375 82.16199219 184.9121875 83.01148437 185.671875 83.88671875 C197.41281961 97.59071939 207.15476064 112.29167616 215.4375 128.3125 C216.05189941 129.47845703 216.05189941 129.47845703 216.67871094 130.66796875 C244.8954711 184.6785042 249.70598695 248.04910602 231.87548828 306.12890625 C223.68985912 331.4925381 211.03778526 355.4708559 194.4375 376.3125 C193.66535156 377.28960937 192.89320313 378.26671875 192.09765625 379.2734375 C177.43056268 397.40945179 155.47606258 422.63297914 132.4375 430.3125 C126.51530436 430.89310742 122.1983019 429.80306625 117.4375 426.3125 C114.28892481 422.9081582 113.18749069 419.39826667 112.9375 414.8125 C113.28974106 408.85459401 115.34799594 405.17774724 119.73046875 401.265625 C121.59376543 399.74917575 123.47239726 398.251439 125.36328125 396.76953125 C130.63654161 392.55494323 135.52336927 387.93593568 140.4375 383.3125 C141.50097656 382.33023438 141.50097656 382.33023438 142.5859375 381.328125 C176.4991011 348.93759323 194.3203346 300.38809192 195.43359375 254.20703125 C195.88589533 204.51142279 175.30112084 158.93124753 141.4375 123.3125 C140.81875 122.62929687 140.2 121.94609375 139.5625 121.2421875 C112.06755487 91.90606301 67.80696256 73.40737735 28.06126404 72.02891541 C12.12846431 71.60411113 -4.00795657 71.45963346 -19.5625 75.3125 C-20.4090918 75.52181152 -21.25568359 75.73112305 -22.12792969 75.94677734 C-50.94995882 83.29000258 -80.20002859 96.03683414 -101.09033203 117.8293457 C-102.5625 119.3125 -102.5625 119.3125 -105.0625 121.25 C-132.89035869 144.20798342 -147.86164021 184.52383455 -152.02734375 219.1796875 C-155.72123996 262.19080781 -141.77328058 304.51813661 -114.1171875 337.4375 C-86.25004139 368.79869195 -48.83865984 388.20487884 -6.734375 391.20556641 C-2.38402072 391.41975876 1.96284207 391.34056335 6.31640625 391.28564453 C22.58872708 391.16018038 36.59685582 395.17634548 49.4375 405.3125 C50.07300781 405.78429687 50.70851563 406.25609375 51.36328125 406.7421875 C63.12800663 415.97658392 69.26540201 430.87640261 71.4375 445.3125 C73.12305719 463.07251719 67.64403429 479.41212428 56.40234375 493.1875 C46.96488522 503.3942146 33.30806185 511.3275607 19.28759766 512.59790039 C15.76941529 512.71619512 12.26993049 512.72804787 8.75 512.6875 C7.47560059 512.67807373 6.20120117 512.66864746 4.88818359 512.65893555 C-6.77136676 512.47609492 -18.08868905 511.34748548 -29.5625 509.3125 C-30.91674072 509.07901855 -30.91674072 509.07901855 -32.29833984 508.84082031 C-71.37065275 501.87578606 -110.03090644 485.46396087 -141.5625 461.3125 C-142.1404834 460.87583008 -142.7184668 460.43916016 -143.31396484 459.98925781 C-161.72148588 446.05191972 -179.62784301 429.79671851 -193.5625 411.3125 C-193.97628906 410.77512207 -194.39007813 410.23774414 -194.81640625 409.68408203 C-225.42748122 369.86960442 -244.18318139 322.36913016 -248.5625 272.3125 C-248.67335937 271.05566406 -248.78421875 269.79882812 -248.8984375 268.50390625 C-252.53579655 221.26739211 -242.88207437 174.08530114 -220.5625 132.3125 C-220.04284668 131.33120117 -220.04284668 131.33120117 -219.51269531 130.33007812 C-209.0343796 110.67724444 -195.91361214 93.43341864 -180.5625 77.3125 C-179.94342773 76.65942871 -179.32435547 76.00635742 -178.68652344 75.33349609 C-168.71108522 64.87991644 -158.36866959 55.64437445 -146.5625 47.3125 C-145.85544922 46.80912109 -145.14839844 46.30574219 -144.41992188 45.78710938 C-115.62053929 25.44738224 -83.74985167 11.89751197 -49.3125 4.5625 C-48.37913818 4.36358154 -47.44577637 4.16466309 -46.48413086 3.9597168 C-30.93037515 0.81223832 -15.82341381 -0.06302873 0 0 Z " fill="#D45EFF" transform="translate(259.5625,-0.31250000000000006)"/>
</svg>
